<?xml version="1.0" encoding="utf-8"?>
<!-- Generator: Adobe Illustrator 24.3.0, SVG Export Plug-In . SVG Version: 6.00 Build 0)  -->
<svg version="1.1" id="圖層_1" xmlns="http://www.w3.org/2000/svg" xmlns:xlink="http://www.w3.org/1999/xlink" x="0px" y="0px"
	 viewBox="0 0 363.6 363.6" style="enable-background:new 0 0 363.6 363.6;" xml:space="preserve">
<style type="text/css">
	.st0{fill:none;stroke:#FFFFFF;stroke-width:3.9996;stroke-miterlimit:10;}
	.st1{fill:none;stroke:#FFFFFF;stroke-width:0.5;stroke-miterlimit:10;}
	.st2{fill:#FFFFFF;stroke:#FFFFFF;stroke-width:0.216;stroke-miterlimit:10;}
	.st3{fill:#030303;stroke:#FFFFFF;stroke-miterlimit:10;}
	.st4{fill:#040404;stroke:#FFFFFF;stroke-miterlimit:10;}
	.st5{fill:#141414;stroke:#FFFFFF;stroke-miterlimit:10;}
	.st6{fill:#010101;stroke:#FFFFFF;stroke-miterlimit:10;}
</style>
<g id="Layer_x0020_1">
	<g id="_306225784">
		<circle class="st0" cx="181.7" cy="181.7" r="179.7"/>
		<circle class="st1" cx="182.2" cy="181.5" r="176.1"/>
		<path class="st2" d="M167.7,2c2.5,0,5.2,0,7.7-0.4c5.6,0,10.9-0.2,16.5,0.4c1.8,0,3.8,0,5.6,0.2c3,0.5,6.3,0.2,9.1,0.9
			c3,1.1,6.3,1.3,9.5,1.8c3.6,0.7,7.4,1.1,10.9,2.2c4.3,1.8,9,2.5,13.5,4.1c3.6,2.2,8.1,2.5,11.7,4.7c2.7,1.6,5.9,2.2,8.6,3.8
			c2,1.4,4.1,2.2,6.3,3.2c1.6,0.5,2.7,2,4.5,2.5c3.2,1.4,5.9,3.9,9,5.4c1.3,0.7,2.2,2,3.4,2.5c3.2,1.4,5.4,4.3,8.4,5.9
			c0.7,0.4,1.3,1.1,1.8,1.8c0.7,0.7,2,1.3,2.9,2c1.3,0.7,1.8,2.2,3.2,2.9c1.8,1.1,3,2.9,4.7,4.3c1.4,1.1,2.5,2.7,3.9,3.6
			c1.6,1.3,2.5,3,4.1,4.3s2.5,3.2,3.9,4.5c1.6,1.1,2.3,3,3.8,4.3c1.3,0.9,1.8,2.5,2.9,3.8c2.3,2.2,3.6,5.2,5.9,7.5
			c1.1,1.1,1.4,2.9,2.5,3.9c2,1.8,2.5,4.3,4.1,6.3s2.3,4.5,3.8,6.8c2.3,2.7,2.9,6.6,5.2,9.3c0.9,2,1.6,3.9,2.3,5.9
			c0.7,2,1.8,3.6,2.5,5.7c0.7,2.2,1.4,4.1,2.2,6.5c2.2,3.8,2.7,8.3,3.8,12.6c0.4,1.8,1.3,3.4,1.8,5.2c0.9,4.8,1.8,9.9,2.3,14.7
			c0.2,2.3,0.7,4.3,1.3,6.5c0.2,2.5,0.7,4.8,0.5,7.4c0,2.2,0.5,4.1,0.5,6.3c0,5,0,10-0.2,15.1c-0.5,2.5,0,5.2-0.5,7.7
			c-0.4,1.6,0,3.2-0.5,4.8c-0.7,1.8-1.1,3.8-1.1,5.7c-0.7,4.7-1.4,9.5-2.3,14.3c-0.4,1.6-1.3,3-1.6,4.7c-0.7,3.8-1.8,7.5-3,11.1
			c-2,3.8-2.5,8.3-4.7,12c-0.9,2-1.6,4.1-2.5,6.3c-0.9,2-2.2,3.6-2.9,5.6c-0.7,2-1.6,3.9-3,5.6c-1.3,1.8-1.6,3.9-2.9,5.6
			c-1.4,1.6-2.3,3.4-3.2,5.2c-0.7,1.6-2.3,2.7-3,4.5c-0.7,1.6-2.5,2.7-3.2,4.5c-1.8,2.9-4.3,5.2-6.1,8.1c-0.5,0.9-1.6,1.4-2.2,2.2
			c-1.1,1.1-1.6,2.7-2.9,3.4c-0.9,0.7-1.6,1.6-2.3,2.7c-0.9,1.4-2.5,2.2-3.4,3.6c-0.7,1.1-1.8,1.8-2.9,2.5c-1.1,0.9-1.6,2.5-2.9,3.2
			c-1.1,0.7-2.2,1.4-2.9,2.5c-1.1,1.4-3,2-4.1,3.4c-1.3,1.4-3,2.3-4.5,3.6c-1.8,1.6-3.6,3-5.6,4.1c-1.3,0.7-2,2-3.2,2.5
			c-1.1,0.7-2.2,1.1-3,2c-1.1,1.3-2.9,1.8-4.3,2.9c-2,0.9-3.4,2.5-5.6,3.4c-1.4,0.5-2.9,1.4-4.1,2.3c-2.2,1.4-4.8,2-7,3.4
			c-2.9,2-6.3,2.9-9.3,4.1c-3,2-6.5,2.5-9.7,3.8c-4.7,2.2-9.7,3-14.7,4.3c-0.9,0.2-1.8,0.9-2.9,1.1c-6.3,1.3-12.7,2.3-19.2,3
			c-4.5,1.6-9.1,0.9-13.8,1.6c-5.9,0.2-11.8,0.2-17.8,0c-4.5-0.5-9.1,0-13.5-1.4c-1.1-0.4-2.3-0.2-3.4-0.4
			c-5.4-0.9-10.8-1.6-16.1-2.9c-5.6-2.3-11.8-2.7-17.2-5.4c-3.2-1.3-6.6-1.8-9.7-3.6c-2.7-1.4-5.7-2.2-8.4-3.6
			c-2.5-2-5.7-2.5-8.4-4.5c-1.8-1.4-4.1-2-5.9-3.2s-3.4-2.5-5.4-3.2c-1.6-0.7-2.3-2.3-3.8-2.9c-2.5-1.1-4.3-3.2-6.6-4.5
			c-2-1.4-3.6-3.2-5.7-4.5c-1.4-0.9-2.3-2.5-3.8-3.2c-2-1.1-2.9-3.2-4.8-4.1c-1.4-0.9-2.2-2.9-3.8-3.8c-1.6-1.1-2.5-3-4.3-4.3
			c-1.6-1.1-2.5-3-3.9-4.3c-1.4-1.1-2.2-2.9-3.6-3.9c-1.1-0.9-1.6-2-2.3-3c-0.7-1.1-1.8-1.8-2.5-2.9c-2.2-3.2-4.7-6.1-6.6-9.5
			c-2-1.8-2.7-4.5-4.3-6.6c-1.6-2-2.5-4.3-3.8-6.5c-1.4-1.8-2.3-4.1-3.4-6.3c-0.5-1.8-1.8-3-2.5-4.8c-0.9-1.8-1.4-3.9-2.5-5.7
			c-1.6-3-2.5-6.5-3.6-9.7c-0.4-1.4-1.6-2.5-1.8-4.1c-1.3-4.1-2-8.6-3.8-12.6c-1.3-5.7-2.2-11.7-3.2-17.6c-1.1-3.2-1.1-6.8-1.3-10.2
			c-0.5-3-0.2-5.9-0.7-9c-0.2-5.6-0.2-11.1,0-16.9c0.5-2.7,0-5.7,0.7-8.4c0-2.2,0.4-4.1,0.5-6.1c0-1.3,0.7-2.2,0.9-3.2
			c0.9-5.9,1.8-12,3.2-17.9c2-4.3,2.2-9.1,4.1-13.5c2.3-4.1,2.5-9.1,5.2-12.9c0.9-2.2,1.6-4.5,2.7-6.6c1.6-2,2.2-4.3,3.4-6.5
			c0.5-1.8,2-2.9,2.7-4.5c0.9-2,1.8-4.1,3.2-5.7c1.3-1.6,1.8-3.6,3.2-5.2c2-2.2,3-4.8,5-7c1.6-1.6,2.3-3.9,4.3-5.4
			c1.3-2.3,3.6-4.1,5-6.5c3.8-3.9,7.2-8.1,11.1-11.7c2.7-2,4.8-4.8,7.5-6.6c1.4-1.1,2.5-2.3,3.9-3.2c1.4-0.7,2.2-2.2,3.4-2.9
			c1.4-0.7,2.7-1.6,3.8-2.7c2.2-1.6,4.7-2.9,6.6-4.7c1.4-1.1,3.4-1.8,4.8-3c2.5-2,5.7-2.7,8.1-4.8c2.7-1.6,5.7-2.2,8.3-4.1
			c2-1.1,3.9-1.8,6.1-2.5c1.4-0.5,2.5-1.6,3.9-2c3-1.3,6.5-1.8,9.5-3.6c4.3-1.8,9.1-2.2,13.5-4.1c4.3-0.9,8.8-1.8,13.1-2.5
			c2.3-0.4,4.8-0.4,7-1.4C160.9,2.7,164.3,2.5,167.7,2z M137.2,11.1c-0.7,0.2-1.3,0.7-2,1.1c-3.2,0.4-6.3,1.6-9.5,2.3
			c-1.3,0.4-2.3,1.1-3.4,1.6c-3,1.1-6.1,2-9,3.2c-2.7,1.8-5.9,2.5-8.8,3.9c-2,1.6-4.3,2.2-6.3,3.4c-1.8,0.5-2.9,2-4.5,2.7
			c-3.2,1.3-5.7,3.9-9,5.4c-1.4,0.5-2.2,2-3.6,2.5c-1.1,0.7-2.2,1.4-3,2.3c-2.2,1.8-4.7,3-6.5,5c-1.4,1.4-3.4,2-4.5,3.6
			c-1.1,1.4-3,2.3-4.3,3.8c-1.3,1.6-3.2,2.3-4.3,4.1c-0.9,1.6-2.9,2.3-3.9,3.9c-1.1,1.8-3,2.7-3.9,4.5c-0.9,1.6-2.7,2.3-3.6,3.9
			c-1.1,1.8-2.7,3-3.8,4.8c-1.6,2.5-3.9,4.7-5.4,7.4c-0.7,1.4-2.2,2.2-2.7,3.6c-1.4,3.2-3.9,5.7-5.2,9c-0.5,1.3-1.8,2.2-2.3,3.6
			c-0.5,1.4-1.4,2.7-2,4.1c-0.5,1.6-2,2.9-2.5,4.7c-1.1,2.2-1.6,4.7-3,6.6c-1.4,3-2.3,6.5-3.4,9.5c-2.5,4.8-3,10.2-5,15.1
			c-0.9,3.6-1.4,7.2-2.2,10.6c-0.5,2.9-0.7,5.9-1.8,8.6c-0.5,5.2-1.4,10.6-1.1,15.8c-0.2-1.4-0.2-2.9-0.4-4.3
			c0.2,4.7-0.2,9.5-0.2,14.3c1.3-0.5,2.3-0.9,3.2-1.6c0.4-0.5,1.1-0.5,1.8-0.7c0,0.7,0,1.3,0,1.8c1.1,0.4,2.2,0.9,3,1.6
			c0.9-1.3,2.2-2.2,3.4-2.9c0.4,0.4,0.5,0.9,0.9,1.3c0.9-0.4,1.8-0.4,2.7-0.9c0.2-0.5,0.4-0.9,0.7-1.4c0.7-0.2,1.4-0.4,1.3-1.3
			c-0.9-1.1-2.3-0.5-3.4-0.5c-1.6,0-2.7,2-4.3,1.3c-1.3-0.2-2.3,0.7-3.6,0.4c0.5-1.8,3-1.8,4.1-3.4c0.4-0.4,0.7-0.9,1.1-1.3
			c0.4-0.2,0.9-0.4,1.1-0.5c0,0.7,0,1.3,0.2,2c0.4-0.2,0.9-0.4,1.3-0.7c0-0.7-0.4-1.4-0.5-2.2c1.3-1.1,2.9-2.7,1.8-4.3
			c-0.9,0.4-1.8,0.9-2.9,1.3c-0.7-1.3-2-1.6-3.2-1.6c0-0.5-0.2-0.9-0.2-1.4c0.9-0.2,2-0.2,2.9-0.2c0.4-0.5,0.9-1.3,1.4-1.6
			c1.1-1.1,2.5,0,3.8,0c0.5-2,3.2-1.8,3.4-3.8c-1.1,0-2.3,0.2-3.2-0.2c-2.5-0.9-5,0.9-7.4-0.4c0-0.4,0-0.9,0-1.3
			c0.9,0,1.6,0.2,2.5,0c1.1-0.5,2.2-1.1,3.4-1.4c0,0.2,0.4,0.9,0.5,1.1c1.3-0.7,2.5-0.7,3.9-0.5c0.2-0.5,0.4-1.1,0.4-1.6
			c-2.3,0.2-4.7-0.9-6.6-2c0-0.7,0-1.4,0-2.3c0.9,0,1.8,0.2,2.5,0.4c0.4-0.4,0.7-0.7,1.3-1.3c1.1,0.5,2.5,0.7,3.8,0.7
			c0-0.5,0-0.9-0.2-1.3c-1.3-0.9-2.2-2-2.7-3.4c0.9-0.5,1.8-0.9,2.9-1.3c0.2-1.3,0.4-2.3,0.5-3.6c0.2-0.2,0.4-0.4,0.5-0.4
			c1.6,0.5,0.9,2.3,1.3,3.6c0.7,0.5,1.8,0.9,2.7,1.4c0,0.2,0,0.5,0,0.7c-0.7,0.5-2.2,0.9-2,2c0.4,1.1,1.6,1.1,2.5,1.4
			c1.6,0.5,3.2-0.7,4.8-0.2c-0.2,0.7,0,1.8-0.7,2.5c-1.3,0.7-2.7,0.9-3.6,2c0.9,0.9,1.4,2.2,2,3.2c0.7-0.4,1.1-1.3,2-1.3
			c0.9,0.4,1.6,1.1,2.7,1.4c0.9,0.2,1.6,0,2.5,0c0,0.9-0.7,2-1.8,1.8c-2.2-0.2-4.3-1.1-6.5,0.2c0,1.3,0.4,2.3,1.1,3.4
			c1.1,0,2.3-0.2,3.6,0c0.5,0.5,1.1,1.1,1.6,1.6c0.9,0.2,2,0.4,2.9,0.5c0,0.2-0.2,0.7-0.2,0.9c-1.3,0.4-2.3,1.1-3.4,1.8
			c-2.2-0.5-3.9-1.8-5.9-2.7c0,1.3,0,2.5,0.2,3.8c1.3,0.5,2.2,2,3.8,2.2c0.4,1.1,0.5,2.3,1.8,2.7c0-0.7,0-1.4,0-2c0.4,0,0.7,0,1.1,0
			c0.4,0.7,0.7,1.4,1.4,2c0.5,0,0.9-0.4,1.3-0.7c0.4,2,2.7,2.5,4.5,2c-0.5,0.2-1.1,0.4-1.6,0.4c0,0.7,0,1.3,0,2
			c-1.8,0-3.6-0.5-5.2-0.7c-1.6-1.1-3.6-1.4-5.6-1.3c0.2,0.9,0.4,1.8,0.7,2.5c0.9,1.6,2.7,2,3.9,3c0-0.5,0-1.1,0.2-1.6
			c0.2-0.2,0.5-0.5,0.7-0.9c0.9,0.9,1.6,1.8,2.3,2.9c1.1-0.5,2.2-0.9,3.4-1.1c0-0.7,0-1.6,0.2-2.3c2.3,0.5,4.3,2.2,5.7,3.9
			c-1.4,1.1-3.2,0-4.8,0.2c-1.4,0.2-2.5,1.4-3.9,0.9c-2.2-0.4-4.3-0.4-6.5-0.4c0,1.3,0.4,2.7,0.5,3.9c0.2,0,0.5,0,0.7,0
			c0.4-0.5,0.5-1.8,1.4-1.4c1.6,1.1,2.5,3.2,4.3,3.9c0.9,0.2,1.8,0.4,2.5,0.7c-0.4-1.1-0.9-2.2-1.3-3.2c2.3-0.5,4.1,1.6,6.5,1.4
			c-0.5-0.7-1.1-1.6-1.6-2.5c1.1,0.2,2,0.5,3,0.9c-0.5-0.9-0.7-1.6-0.7-2.5c1.3-0.4,2.3,0.5,3.4,1.3c1.3,0.2,2.3,0.2,3.6,0.2
			c-0.2,0.5-0.2,1.1-0.4,1.6c-1.4,0.9-3,0.2-4.7,0.7c-1.3,0.4-2,1.6-3.2,2c-1.8,0.5-3,2-4.1,3.4c-1.6,0.5-3.2,0-4.8,0.4
			c-1.1,0.5-2.3,1.1-3.4,1.4c-0.2,1.6,0.2,3.4,0.7,5c0-0.7,0.2-1.4,0.2-2.2c0.9-0.2,1.8,0.4,2.5,1.1c0.2-0.4,0.5-0.5,0.9-0.9
			c0.9,0.5,1.8,1.1,2.7,1.6c1.3,0.2,1.6-1.4,2-2.3c1.3,0,2.2,0.9,3,1.4c1.4,0.7,3,0.4,4.5,0.5c-0.2,0.7-0.4,1.6-1.1,2
			c-0.9,0.9-2.5,0.5-3.6,0.7c-2.9,0.5-5.7,0.7-8.6,1.3c-2,0.2-3.9,0-6.1,0c-0.4,1.6,1.1,2.7,1.8,3.9c0.5,1.8,0.7,3.8,2.5,4.7
			c-0.4-1.6-0.9-3-0.7-4.8c2.2-0.2,2,2.5,3,3.8c0.9,0,2,0,3,0.2c-0.2-0.7-0.2-1.4-0.2-2.2c1.4,0.2,2.7,1.1,3.9,1.6
			c1.6,1.1,3.4,1.6,5.2,2.2c0.7,0.2,1.4-0.5,2.3-0.5c1.1-0.4,1.6,0.7,2.5,1.3c0.5-1.1,1.4-2.3,2.9-2.3c0.2,0.9,0.4,1.8,0.5,2.5
			c0.7-1.6,2-3,3.2-4.1c0.9,0.4,1.8,0.9,2.7,0.5c1.3-0.4,1.4-1.8,1.8-2.7c-2.7,0-5,0.9-7.5,1.6c-0.5-0.4-0.9-0.9-1.4-1.3
			c-1.3,0-2.3,0.2-3.4,0.2c0-2,2.7-1.8,3.4-3.6c0.4-0.2,0.9-0.4,1.3-0.5c0.4,0.5,0.5,1.1,0.7,1.6c0.5-0.4,1.1-0.9,1.6-1.3
			c0.4-0.4,0.7-0.9,1.1-1.3c0.7,0,1.3,0,1.8,0c0-0.2,0.2-0.7,0.2-0.9c-1.8,0-3.4,0.4-5.2,0.4c-1.6-0.2-3.2-0.4-4.8-0.5
			c-0.7,0-1.3-0.5-1.6-1.3c1.4-0.2,2.9-0.2,3.8-1.4c0.7-0.5,1.4-1.1,2.3-1.3c0.2,0.5,0.4,1.3,0.7,1.8c0.7-0.7,1.4-1.3,2-2.2
			c0.2-0.9,0.4-1.8,0.7-2.7c1.3,0.2,2,1.4,2.7,2.3c1.3,0.2,2.5-0.2,3.4-1.1c-0.4-1.1-0.5-2.3-0.7-3.6c-0.9,0.4-1.6,1.1-2.7,1.6
			c-1.3-0.2-2.5-0.5-3.9-0.4c-0.7,0.2-1.1-0.7-1.6-1.1c-1.3,0.2-2.3,0-3.4-0.5c-0.2-0.4-0.2-0.7-0.2-1.3c1.4,0.4,2.9-0.2,3.9-1.4
			c0.9,0.2,1.6,0.4,2.5,0.2c0.9,0,1.3-1.1,2.2-1.1c0.4,0.4,0.7,0.9,1.1,1.3c0.5-1.1,1.3-2.2,1.4-3.4c0.2-1.3,1.1-2.3,1.8-3.2
			c-0.5-1.1-1.8-2-1.1-3.2c0.7,0,1.3,0,2,0c0.7-2.5,0.4-5.2,1.1-7.5c0.2-0.2,0.5-0.2,0.9-0.2c0.7,2.7,0.2,5.4,0.4,8.3
			c0.9-0.2,1.8-0.2,2.7,0c0,0.5-0.2,1.3-0.2,2c-0.9,0.4-2,0.4-2.7,1.3c0.5,0.7,1.6,0.7,2.3,1.1c0.2,0.9-0.2,1.6,0.2,2.5
			c0.9,0.5,2,1.3,2.7,2c0.7,0.9,1.8,0.2,2.5,0.5c2.2,0.9,4.3,1.6,6.6,2.2c0,0.5,0,1.1,0,1.6c-1.8,0.2-3.6,0.4-5.4,0
			c-0.2,2-1.8,3.2-3,4.5c1.8,0.2,3.6-0.4,5.4,0.4c-0.2,0.2-0.5,0.5-0.7,0.7c-0.7,0.2-1.4,0.5-2.3,0.9c0.4,0.5,0.7,1.1,1.3,1.6
			c-1.4,0.5-2.7,1.1-4.1,1.4c0.4,0.5,0.5,1.3,1.3,1.3c1.1-0.2,2.3-0.7,3.4-0.9c1.3,0.7,2.2,1.8,3.2,2.5c0.2-0.7,0.2-1.6,0.9-2
			c1.3,0,2.7,0.4,3.9,0.9c-0.7,0.7-1.8,1.1-2.9,1.3c-0.2,0.5-0.4,1.3-0.5,1.8c-1.1,0-2-0.2-3-0.2c-0.5,0.5-0.9,1.1-1.4,1.4
			c-1.3,0.5-2.5-0.4-3.8-0.5c-1.1,0.4-2.2,0.7-3.4,0.5c-0.2,1.4,1.4,2,2.5,2.2c2.3-0.5,4.5-0.4,6.6,0.2c1.6,1.1,3.8,0.9,5.6,0.9
			c0,0.4,0.2,0.7,0.2,1.3c-0.5,0.4-1.1,0.7-1.6,1.1c0.2,0.2,0.7,0.5,0.9,0.5c1.1,0.4,1.3-2,2.3-1.1c1.4,0.9,3,0.7,4.7,0.7
			c0,1.1-0.4,2-0.9,2.7c-2.7-0.2-5.2,0.2-7.9,0c-1.1,0.2-2.3,0.5-3.4,0.5c0.2,0.9-0.2,2,0.5,2.5c1.3,1.8,3.2,2.9,5,3.8
			c-2,0.9-3.9,2-6.3,1.8c-1.4,0.2-2.2-1.4-3.6-1.6c-1.1,1.8,0.2,3.6,1.1,5.2c-0.7,0.7-1.3,1.3-2,2c2,0.2,3.9,0.2,5.9,0.2
			c0.4,1.3-0.9,2.2-1.3,3.2c1.6,0.2,3.4-0.5,5-0.9c1.4-0.2,2.2-1.4,3.6-1.8c0,0.5,0,1.1,0,1.6c-0.9,0.7-1.8,1.4-2.5,2.2
			c1.1,0,2.2,0.2,3,0.7c-0.5,1.3-2,1.4-3.2,1.8c-3.9-0.4-7.7-0.4-11.7-0.5c0,0.4,0.2,0.9,0.2,1.3c1.4,0.2,2.7,0,4.1,0
			c0,0.4-0.2,0.7-0.2,1.1c-0.7,0.2-1.4,0.5-2.2,0.7c0,0.4,0,0.9,0,1.3c1.8-0.2,3.2-1.4,5-1.4c0,1.1-0.9,2-1.3,3
			c2.2,0.2,4.5,0.2,6.6-0.2c2-0.4,3.6-1.4,5.6-2c0,0.5,0,0.9,0,1.4c-1.6,1.8-3.9,2.7-5.7,4.3c1.4,0.2,2.9-0.2,4.1,0.7
			c-0.2,0.2-0.5,0.5-0.9,0.7c-2.5,0.2-5,0.2-7.5-0.4c-1.6-0.4-3.2,0.4-4.5,1.3c-0.9-0.2-1.1-1.3-1.6-1.8c-1.1,0-2,0.2-2.9,0.5
			c1.8,1.6,2.2,4.5,4.5,5.7c2.2-0.2,3.8-2.2,6.1-2c0,0.9,0,1.6,0,2.5c1.1-0.4,2.3-0.5,3-1.4c1.1-0.9,2.2-2.2,3.6-2.5
			c0.4,0.5,0.7,1.1,1.1,1.6c1.6-0.5,3.2-1.3,4.1-2.9c0.7-0.9,1.3,0.5,1.1,1.1c-0.7,2-2.9,3-3.8,5c2.2-0.4,3.4-2.2,4.5-3.8
			c0.5-0.7,1.3-0.5,2-0.4c-0.2,0.9-0.2,1.6-0.2,2.5c0.9-0.4,1.6-1.6,2.9-1.3c0.7,0,0.7,0.9,0.9,1.4c-0.9,1.1-2.5,2-3.9,1.1
			c-1.4-0.9-2.5,0.7-3,2c2.2,0,4.3,0.2,6.3-0.5c0.5,0.7,0.9,1.6,1.3,2.5c2.5-0.9,4.7-2.7,6.6-4.3c0.7,0.2,1.3,0.5,1.8,0.7
			c0.9-0.9,2.2-1.6,2.2-3.2c-1.6,0.2-3-1.3-4.8-0.9c-1.6,0.4-3.8,0.9-5.4-0.4c-1.4-1.4-3.2-2.5-4.7-4.1c-1.1-0.4-2.3-0.4-3.2-1.1
			c-0.5-0.7-1.3-2-0.2-2.5c3,1.1,6.3,1.3,9.5,0.7c-0.2,0.7-0.5,1.3-0.7,2c1.1,0,2.3,0,3.4-0.2c1.4-0.5,2.9-1.6,4.1-2.3
			c0.9-0.4,1.6-0.2,2.3-0.4c1.1-0.7,2-1.6,2-2.9c-1.4-0.4-3-0.7-4.5,0c-3,0-6.5,0.5-9.1-1.1c0-0.4,0-0.7,0-1.1
			c1.3-0.7,2.3-1.8,3.8-1.6c0.9,0.2,1.4,1.1,2.3,1.1c1.6-0.7,3.2-1.6,4.3-2.9c0.7-0.9,1.8-1.1,2.9-1.4c0-0.5,0-0.9,0.2-1.4
			c-2.7,0-5.2-0.4-7.9,0.2c-0.9,0.2-2,0.4-2.9-0.2c-1.3-0.4-2.9-1.3-2.2-2.7c1.6-0.2,3.4,0.7,5.2,0.5c-0.9-2.2-3.9-2-4.7-4.3
			c2.2,0.4,4.1,1.8,6.3,2c0.9-0.2,1.8-0.5,2.7-0.5c1.8,0.4,3.8-1.1,3.8-2.9c-2.3-0.4-4.7-1.4-7-2c-1.3-0.4-1.1-1.8-1.1-2.7
			c2-0.2,3.9,0.9,6.1,0.7c1.3,0,2.5-0.7,3-2c2-0.2,4.3,0.5,6.1-0.5c0.4-1.6-1.4-2-2.5-1.6c-2.2,0.7-4.5,0.7-6.5-0.5
			c-0.7-0.4-1.1-1.1-1.1-1.8c0.9,0,1.8,0.2,2.5,0.4c-0.5-1.3-1.6-2.3-2.2-3.6c1.1-0.2,2,0.5,2.7,1.3c1.1,1.8,3,2,4.8,2
			c1.1-0.2,0.7-1.6,1.1-2.3c1.8-0.2,3.8,0,5.4-0.9c0.7-0.4,0.5-1.1,0.5-1.6c-1.6,0.2-4.3,1.1-5-1.1c1.3-0.2,2.5,0,3.6-0.7
			c-0.7-0.4-1.4-0.9-2.2-1.3c1.8-0.5,4.1-1.3,4.5-3.4c-0.5-0.5-1.1-0.9-1.4-1.6c0-0.9,0-2,0.2-3c1.3-0.2,2.5,0,3.8,0.5
			c0.4-1.6,0.7-3,1.1-4.7c0.4,0,0.9,0,1.4,0c1.3,1.4,0.5,3.6,0.9,5.2c0.4,0.9,1.4,0.7,2.2,0.7c0,0.5,0,1.1,0,1.4
			c0,1.1-1.3,1.6-0.9,2.7c0.4,0.7,0.5,1.6,0.4,2.5c1.3,0,2.5,0,3.6,0.4c0,0.2,0,0.7,0,0.9c-0.7,0.4-1.6,0.5-2.2,1.3
			c1.8,1.3,3.9,0.9,6.1,1.1c-0.4,0.7-0.9,1.3-1.4,2c0.2,0.7,0.4,1.4,0.7,2.2c2.2,0,4.1-0.7,6.3-0.7c-0.2,0.9-1.1,1.4-1.8,2
			c1.3,0.5,2.5,0.5,3.6,0.4c1.6-0.5,2.7-2.2,4.3-1.8c0,0.5,0,1.4-0.5,1.8c-1.3,1.3-2.5,2.7-4.3,3c-1.4,0.2-2.7,0.4-3.9,0.5
			c-1.4-0.2-2.9-0.5-4.3-0.4c0.5,0.7,1.4,1.3,2.5,1.4c1.1,0.5,2,1.3,3.2,1.4c1.1-0.2,2.3-0.7,3.4-1.1c-0.4,0.9-0.9,1.8-1.3,2.5
			c1.4,0,2.9,0.5,3.9-0.5c0.9-0.2,2-1.3,2.5-0.4c-0.2,1.1-1.3,1.4-1.8,2.2c-0.9,0.4-1.6,0.7-2.3,1.1c-1.4,0.7-3,0.4-4.5,0.4
			c-1.6,0-3.2,0.2-4.8,0.5c0,0.2,0,0.7,0,0.9c2.5,0.4,4.8,0.5,7.2,1.3c-0.4,0.5-0.7,1.1-0.9,1.6c0,0.2,0.2,0.5,0.2,0.5
			c1.3-0.2,2.5-0.4,3.8-0.7c0.7,0.2,1.3-0.4,1.6-0.9c0.7-0.7,1.6-0.9,2.5-1.1c0,0.4,0,0.9,0,1.4c-1.1,1.3-2.5,2.3-4.3,2.7
			c-2.5,0.9-5.2,0.2-7.9,0c-2-0.5-3.9-1.4-6.1-2c0.2,1.1,0.7,2,1.4,2.9c0.5-0.4,1.1-0.7,1.8-0.5c0.7,0.4,1.3,0.9,2,1.3
			c1.1,0.2,2.2-0.2,3,0.5c3,1.6,6.6,1.6,10,0.9c0.5,1.4-1.3,1.4-2.2,2c0,0.2-0.2,0.5-0.2,0.9c2.3,0.4,3.8-1.8,5.9-2.2
			c-0.5,2.9-3.9,3.2-5.9,4.7c-3.8,0.5-7.5-0.7-11.3-0.5c0.7,1.4,2.2,2,3.8,2c0.9,0.4,2.2,0.2,3.2,0.4c0,0.2,0,0.5,0,0.9
			c-1.1,0.2-2.5,0-3,1.3c3.6,0.5,7.2,0.9,10.6-0.2c0,0.4,0,0.9,0,1.1c-2,1.4-4.5,2-6.8,2c0,0.4,0.2,0.7,0.2,1.1
			c2.5,0.2,5-0.4,7.5-0.4c0,0.7,0.2,1.4-0.2,2c-2.3,1.1-4.7,2.3-7.2,2c-1.1,0.2-2.3-0.4-3.2,0.4c-1.3,0.5-2.7,1.1-4.1,1.1
			c0,0.2,0,0.7,0,0.9c3.9,1.4,8.3,0.9,12.6,0.7c-0.7,0.5-1.4,1.1-2.3,1.6c0,0.2,0,0.5,0,0.7c0.9,0,2.2,0,3-0.7
			c2.2-0.7,4.1-2.2,6.3-3c-0.2,0.7-0.4,1.4-0.5,2.2c1.1-0.5,2-1.1,2.9-1.3c0,1.3-0.9,2.2-1.4,3.4c-0.9,1.6-2.5,2.7-3,4.5
			c2.3-1.1,4.5-2.3,6.5-3.8c1.1,1.3-0.7,2.5-1.3,3.6c-2.3,1.6-4.5,3.6-7.4,4.5c0.2,1.4-1.3,1.8-2.3,2.2c-2.9,0.2-5.7,0.2-8.6,0
			c0,0.4,0,0.7,0.2,1.1c2.2,0.7,4.5,0.9,6.8,0.9c-0.2,0.5-0.2,1.1-0.2,1.6c0.4-0.4,0.7-0.5,1.1-0.7c1.4-0.4,2.7-0.9,4.1-1.3
			c-0.5,1.8-2.5,2.3-3.8,3.4c-1.6,1.4-3.6,1.6-5.4,2.5c2.9,0.4,5.9,0,8.8,0c-0.5,1.1-1.4,1.8-2,2.9c1.3-0.4,2.3-0.7,3.4-1.3
			c1.3-0.9,2.3-2.2,3.8-2.5c1.3-0.4,2.3-1.1,3.4-1.6c0-0.9-0.4-1.6-0.7-2.3c1.1-0.2,2-0.4,2.9-0.4c0-1.4-0.2-2.7,0-4.1
			c1.1-2.9,3.9-4.7,4.8-7.7c0-1.6,0-3,0.4-4.5c1.6,0.2,2.2,2.2,2.5,3.4c0.4,1.6,1.6,2.9,3,3.8c0.7,0.2,1.6,0.4,2.5,0.7
			c0,0.2,0,0.7,0,0.9c-0.7,0.4-1.6,0.7-2.3,1.1c0.4,0.7,0.7,1.4,1.6,2c1.3,1.1,3.2-0.2,4.5,1.1c-0.7,0.4-1.4,0.7-2.3,1.1
			c-0.2,0.5-0.4,1.1-0.5,1.6c-0.7-0.2-1.6-0.7-2.3-1.1c0.2,0.4,0.2,0.9,0.2,1.3c2.3,2.2,5.6,2.9,8.4,1.8c0,0.4,0,1.3,0,1.6
			c-1.3,0.4-2.2,1.1-3.4,1.6c-1.1,0-2-0.2-3,0c0.7,0.7,1.4,1.3,2.3,2c-1.4,1.6-2.5-1.3-4.3-0.9c0.4,0.9,0.9,1.4,1.4,2.2
			c-1.1-0.5-2-1.1-3-1.3c0.4,1.1,1.4,1.8,2.2,2.7c0.7,0.7,1.1,1.8,2.2,2.2c1.6,0.5,3.2,0.4,4.7,0.4c-0.7,0.5-1.4,0.9-2.2,1.3
			c0,0.2,0,0.5,0,0.7c2.5,0,5.2,0.2,7.9,0.2c-0.2,0.4-0.4,0.9-0.4,1.3c-2.2,0.5-4.3,0.7-6.5,1.3c0.4,1.3,1.8,1.1,2.9,1.4
			c-1.4,1.1-3.4,1.1-5,1.6c1.1,1.1,2.5,1.6,3.9,1.4c1.4-0.2,2.7,1.1,4.3,1.1c0.4,0.2,0.7,0.4,1.3,0.5c0,0.4,0.2,0.9,0.2,1.4
			c-1.4,0.5-3.2,0.9-4.8,1.1c0.2,0.2,0.4,0.5,0.7,0.7c2,0,3.9-0.4,5.7-1.3c0.2,0.5,0.4,1.1,0.5,1.6c-1.4,2-3.4,4.1-6.1,4.1
			c-1.6,0.4-3.2-0.2-4.8-0.9c0.2,0.5,0.5,1.3,0.9,1.6c0.5,0.9,1.6,0.9,2.5,1.6c0.7,0.7,0,1.6,0,2.5c0.7,0.2,1.4,0.4,2.2,0.5
			c0,0.2,0,0.7,0,0.9c-0.9,0.9-2.2,1.8-3.2,2.5c2.9,2.9,7.7,2.2,10.9,0c0.9-0.4,2.7-1.4,3-0.2c-0.7,1.4-2.3,1.8-3.6,2.7
			c-0.4,0.7-0.4,1.8-1.1,2.3c-1.4,0.4-2.9,0.5-4.1,0.9c-0.2,0.2-0.2,0.7-0.2,1.1c1.6,0.2,3.4,0.4,4.8-0.4c0.9-0.2,1.6-0.5,2.5-0.2
			c-0.7,1.1-2,1.8-3,2.7c-2.3,0.4-4.8,0-7.2-1.1c-2-0.5-3.9-0.7-5.6-1.8c0,0.4-0.2,1.1-0.2,1.4c0,2.3,2.3,3.4,3.9,4.7
			c3.6,3,8.4,2,12.7,2.2c0,0.5,0,0.9,0,1.3c-1.4,0.9-2.7,2-4.3,1.8c-1.3,0-2.5,0.4-3.6,0.7c0.7,0.5,1.6,1.4,2.7,1.3
			c2.2-0.2,4.1-1.1,6.3-1.4c1.3,0.5,0.4,1.8-0.2,2.7c-1.8,1.4-4.1,1.6-5.9,3c0,0.4,0,0.9,0,1.3c1.6,0,3.2,0,4.7,0.7
			c-2.2,1.6-4.8,2.5-7.4,3.6c1.1,1.4,3,2,4.1,3.4c0,0.5,0,1.1,0,1.8c-1.1,0-2.2,0.2-3.2-0.2c-1.6-0.9-2.7-2.5-4.5-3.6
			c0,1.3,0.4,2.5,1.4,3.2c1.4,0.9,2.5,2.3,3.8,3.4c1.6,0.7,3.4,1.3,4.8,2.3c0,1.1-0.5,2.3-1.8,2.7c-1.6,0-3.2-0.5-4.5-1.4
			c-1.6-1.4-3.6-2.5-5-3.9c0.5,1.3,1.3,2.5,1.6,3.8c0.5,1.6,1.8,2.7,2.5,4.1c5.6-1.3,11.5-1.6,17-2.9c1.8-0.5,3.9-0.5,5.7-1.6
			c4.3-1.4,9-2.2,13.1-3.8c3.8-2,7.9-2.3,11.5-4.7c2.9-1.3,5.9-2,8.4-3.8c2-1.1,3.9-1.8,5.7-2.9c2.3-1.4,4.7-2.7,7.2-3.8
			c1.3-0.7,2-1.8,3.2-2.3c2-1.1,3.9-2.5,5.7-3.9c1.4-1.1,3-1.6,4.3-2.9c1.3-1.4,3.2-2,4.5-3.4c1.4-1.4,3.2-2.3,4.8-3.8
			c1.6-1.1,2.9-2.7,4.5-3.8c1.4-1.1,2.7-2.7,4.1-3.9c1.4-1.1,2.5-2.9,3.9-3.9c2-1.4,2.9-3.6,4.8-5c1.8-2.2,3.8-4.3,5.6-6.5
			c1.1-1.3,1.8-2.9,3.2-3.9c1.3-1.3,2-3.2,3.4-4.7c1.4-1.3,2-3.2,3.2-4.7c1.4-1.6,2.5-3.4,3.4-5.4c0.5-1.1,1.8-1.8,2.3-3
			c0.7-1.8,1.6-3.6,2.7-5.2c1.6-2.2,2.3-5,3.8-7.4c2-3,2.7-6.6,4.5-9.7c1.3-1.6,1.4-3.8,2.3-5.7c0.4-1.6,1.1-3.2,1.6-4.8
			c-1.3-4.3-2.3-8.6-3.4-12.9c-1.6-3.4-2.2-7-3.2-10.4c-0.5-1.4-0.5-3.2-1.4-4.7c-0.4-0.5-0.5-1.4-0.7-2.2c-0.9-3.8-2-7.5-2.9-11.5
			c-1.8-2.3-1.6-5.6-2.9-8.3c-0.7-0.9-2-1.3-2.9-2c-0.9-0.5-1.4-1.6-2.5-2.2c-1.3-0.9-2.5-1.6-3.6-2.7c-0.4-1.4,0.9-2.7,1.3-4.1
			c0.9-3,3-5.7,3.9-9c0.9-3,3-5.6,3.9-8.8c0.9-1.6,1.3-3.6,2.5-5.2c0.9-1.3,1.1-2.9,1.6-4.1c-1.4,2.2-3.2,3.9-4.5,6.5
			c-0.5,1.4-2,2.3-2.7,3.8c-1.1,2.3-2.9,4.1-4.3,6.3c-0.9,1.3-1.4,2.7-2.5,3.8c-0.9,0.9-1.4,2-2,3c-0.5-0.5-0.9-0.9-1.4-1.4
			c-2.2-1.4-3.8-3.6-5.7-5.4c-1.8-1.8-3.6-3.4-5.6-5c-4.3-2.2-9-2.9-13.5-4.1c-1.8-0.2-3.2-1.4-5-1.8c-4.5-1.1-8.8-2-13.1-3.2
			c-2,1.6-2.3,4.5-3,7c-0.7,0.4-1.4,0.7-2.2,1.1c-2.3,0.5-4.5-1.1-6.8-1.4c-2.3,0-4.7-0.5-7-0.4c-2.2,0.4-4.5,0.4-6.6,0.4
			c-4.7,0.2-9.3,0.4-13.8,0c-2.7-0.7-5.4-1.4-7.5-3c-1.4,1.1-3,2.2-4.7,2.9c0,1.1,0.2,2.2,0,3.4c-1.8,0.4-3.8,0.2-5.2,1.4
			c-2.7,2-5.9,3-8.8,4.8c1.6,2,3.8,3,5.7,4.5c2.5,1.4,5.7,2.3,7.5,4.8c1.6,2,1.4,4.5,1.1,6.8c-0.5,2.2-1.8,3.9-2.7,5.9
			c-2.7,3.9-3.2,8.8-4.8,13.3c-1.1,2.7-1.3,5.6-1.6,8.3c-0.5,4.8-1.3,10,0.9,14.7c1.6,1.4,2.2,3.8,3.9,5c1.8,1.1,3,2.9,5,3.9
			c1.4,0.7,2.5,2.2,3.9,3c0.9,0.7,2.2,1.6,2.2,3c0.2,1.3-1.4,2.2-2.5,2c-3.6,0-7-0.5-10.4-1.4c-2.3-2.3-5-4.3-7.9-5.9
			c-1.8-1.1-4.1-0.7-5.7-2.2c-1.3-0.9-1.6-3-0.4-3.9c1.6-1.4,1.4-3.8,1.4-5.9c0-3.4,0.2-7-0.2-10.6c-0.4-2.5,0-5.2-0.5-7.7
			c-0.2-3-0.2-6.1-0.2-9.1c0.4-3.2,1.6-6.1,3-8.8c0.5-0.9,1.4-1.4,1.6-2.3c-1.8-0.9-3.6-1.4-5.6-1.1c-2.9-1.8-6.1-2.7-8.6-4.7
			c-2.3-1.3-4.8-2.2-6.8-3.8c-3.2-0.2-6.5-0.5-9.3-1.8c-2-0.7-3.4-2.3-4.8-3.8c-0.2,0.2-0.4,0.7-0.4,0.9c-0.4,3.6,0,7.2-0.2,10.8
			c-1.3,2-3.6,2-5.6,1.8c-1.3,0.2-2.2-0.9-2.9-1.6c-0.9-1.1-2.3-2-2.3-3.4c0-2.3-0.4-4.5-0.4-6.6c0.2-1.1-0.2-2.2,0.5-2.9
			c1.6-0.9,3-2.3,4.8-3c1.3-0.2,2.7-0.4,3.6-1.6c-0.4-1.4-0.5-2.7-1.3-3.9c-0.2,0.5-0.5,1.1-0.7,1.4c-0.7,0.2-1.4-0.2-2.2-0.5
			c0.4-1.1-0.5-3.9,1.1-3.9c0,0.9,0,2.5,0,3.4c1.1-0.5,0.7-2,0.9-3c-0.4,0.2-0.9,0.2-1.4,0.4c-0.2-0.5-0.2-1.3-0.9-1.3
			c-1.8-3.2-5-18.3-6.5-23c-0.5-1.3-1.4-2.2-1.6-3.6c-0.4-2.3-1.4-4.8-0.7-7.2c0.5-1.8,2.2-2.9,3-4.3c1.1-1.4,3-2,4.5-3
			c0.9-0.5,0.9-1.6,0.7-2.5c-0.9-2.3-0.5-5,0.9-7c2.2-2.5,5.6-2.5,8.6-3.6c0-2.9,0-5.9-1.1-8.8c-0.9-1.1-2.7-1.3-3.9-2
			c-1.4-0.4-2.5-1.4-3.8-2c-3.4-0.2-6.3,2-9.7,1.8c0.9-2.3,1.4-4.8,2.9-7c1.6-3.2,2-6.8,3.9-9.9c1.6-3.6,2.2-7.5,4.3-10.8
			c1.4-3.9,2.3-8.1,4.7-11.5c1.4-1.1,3.4-1.1,4.8-2.2c1.4-1.1,3.2-1.1,4.5-2.2c4.1-3.9,7.7-8.1,11.7-12c5.9-5.7,11.5-11.8,17.4-17.8
			c0.5-0.5,1.1-1.3,1.8-1.8c1.3,0.2,1.6,1.4,2.7,2c3,1.8,5.6,4.5,8.6,6.3c1.1,0.5,1.6,1.4,2.7,2.2c0.7,0.9,2,1.3,2.9,2
			c0.5,0.5,1.1,1.3,1.8,1.8c2.9,1.6,5.2,4.3,8.1,6.1c1.4,0.2,2.3-0.9,3.6-1.4c2-0.9,3.4-2.5,5.6-3.4c3-1.3,5.6-3.6,8.8-4.8
			c1.3-0.5,2-1.8,3.2-2c1.3,0.9,2.2,2.3,3.6,3c1.6,0.7,2.5,2.5,4.1,3.4c1.8,0.9,2.7,2.9,4.5,3.9c2.3,1.4,4.1,3.8,6.5,5.2
			c1.3-1.1,3.8-1.8,3.4-3.9c-0.9-0.5-2-1.1-2.9-1.6s-1.6-1.6-2.7-2.2c-2.2-1.1-4.1-2.3-6.1-3.8c-1.6-1.4-3.9-2-5.6-3.2
			c-2.3-2-5.4-2.5-7.9-4.1c-2.5-1.8-5.4-2.5-8.1-3.8c-3.2-2-6.8-2.9-10.2-4.1c-4.3-2.3-9.1-2.9-13.6-4.3c-2.3-1.3-5.2-1.4-7.7-2.2
			c-4.5-1.1-9.3-1.1-13.8-2.7c-3-0.2-6.1-0.7-9.1-0.9c-2.7,0-5-0.5-7.7-0.5C169.3,5.6,158,6.1,137.2,11.1z M211.1,31.2L211.1,31.2
			c-2,2.2-3,4.8-5.2,6.8c-1.3,1.3-1.6,3.2-3.2,4.5c-1.3,0.9-1.8,2.7-3,3.9c-2,2-3,4.5-5,6.5c-1.6,1.6-2.5,3.9-4.3,5.6
			c-1.3,1.3-1.8,2.9-2.9,4.1c-1.8,1.6-2.9,3.9-4.7,5.7c-0.9,1.3-2.2,2.5-2.7,4.1c-1.1,0.7-2.3,1.6-2.7,2.9c1.1-0.4,2-0.9,2.9-1.4
			v-0.4c1.4-2.2,4.1-3,5.7-5.4c0.9-0.9,2.3-1.4,3.2-2.3c2.2-2.3,5-3.9,7.2-6.3c1.4-1.4,3.6-2.5,5.7-2.5c2.3,0,4.3-1.4,6.6-1.3
			c0.7,0.9,1.1,2,1.8,2.9c1.6,1.4,2.2,3.6,3.6,5.4c0,0.4,0.2,0.9,0.2,1.4c0.5,0.2,0.9,0.2,1.4,0.2c0.2-2.2-0.7-4.1-1.1-6.3
			c-0.9-6.5-1.8-13.1-2.5-19.7c3.2-0.2,6.1,1.3,9.3,1.4c3.4,0,7,1.3,10.4,0.7c-1.3-0.7-2.5-1.6-3.9-2.2c-2.5-1.4-5.4-2.2-7.5-4.1
			c-1.6-0.9-3.6-1.4-5-2.5c-0.4-2.2-0.4-4.3-0.7-6.5C213.4,28.2,212.5,29.8,211.1,31.2z M254.9,38.9L254.9,38.9
			c-1.3,0.5-2.2,1.8-3.4,2.2c-2.3,1.3-4.8,2.2-6.8,3.8c-2.2,1.1-4.1,2.3-6.5,3c0,0.2,0.2,0.7,0.2,0.9c1.4,0,2.9-0.5,4.3-0.9
			c3.4-0.4,6.6-1.3,10-1.1c0.7,0.9,1.3,1.8,2.2,2.7c0.9,0.9,2,1.4,2.7,2.5c0.9,1.4,2,3,3.8,3c0-1.8,0-3.6,0.4-5.4
			c0.5-5,1.1-9.9,1.6-14.9c-0.4,0-0.9,0.2-1.1,0.2C259.9,36.6,257.4,37.8,254.9,38.9z M292,43.8L292,43.8c-1.1,1.8-2.5,3.2-3.4,4.8
			c-1.1,1.3-2.3,2.3-3,3.6c-0.7,1.6-2.5,2.5-3.2,4.1c-1.1,2-3,3.4-4.3,5.4c-1.8,2.7-4.3,5-5.9,7.9c-2,1.4-2.7,3.8-4.3,5.4
			c-1.1,1.1-1.8,2.5-2.9,3.4c-2.2,2.2-3.6,4.8-5.4,7.4c1.6-2,3.6-3.4,5.4-5.2c1.1-2,3.4-2.7,4.7-4.5c1.3-1.6,3-2.3,4.1-3.9
			c0.9-1.4,2.5-2,3.4-3.2c0.9-0.9,1.8-2,2.9-2.7c1.4-1.1,2.3-2.9,3.9-3.8c1.6-1.1,2.3-3,3.9-3.8c1.8-1.1,2.5-3.2,4.3-4.1
			c1.3-0.7,2-2,2.9-2.9c1.1-0.9,2.2-1.6,2.9-2.7C296.3,46.8,293.8,45.7,292,43.8z M214.7,85.7L214.7,85.7c0.7,1.4,1.3,2.9,2.2,4.1
			c0.7,2,1.8,3.8,3,5.6c1.1,2.7,2.3,5.2,3.9,7.5c1.3,2.7,2.3,5.4,3.8,7.9c-4.3-0.4-8.6-0.9-12.9-1.4c-3.2-1.3-6.5-1.4-9.9-1.3
			c0.9,2.5,1.1,5.2,2.3,7.5c0.7,2.5,0.7,5.2,0.4,7.9c-1.4,2.5-4.3,3.6-6.6,4.8c-2.2,2-4.8,3-7.4,4.5c-0.5,1.6-2.2,2.9-1.8,4.8
			c-0.2,16.1-0.7,19.7,14.9,16.9c2.2-0.4,3.9-1.8,6.1-2.2c4.1-1.3,8.8-1.3,12.6-3.8c2.3-0.2,5-0.4,7.5,0c2.2,0.9,4.5,2.3,7,2.7
			c2.9,0.5,5.9,1.1,8.8,1.8c1.6,0.7,3.2,0.9,5,1.3c3.9,0,7.7,0.2,11.7-0.2c2.2-0.9,4.3-2.2,5.6-4.1c-0.9-1.1-2-2.2-3.2-2.7
			c-2.3-1.1-4.1-3.2-6.6-4.1c-2.2-0.7-4.3-1.3-6.3-2.7c-1.8-0.9-2-3-3-4.5c-1.4-1.6-1.8-3.6-3-5.2c-3.9-5.4-13.3-21-17.2-24.2
			c-2-1.4-6.8-9-9.1-11.5c-1.6-1.8-2.5-4.3-4.7-5.7C217.4,87.7,216.1,86.6,214.7,85.7z M184.2,98.8L184.2,98.8
			c0.7,1.6,1.3,3.6,2.5,5c0.7,0.7,1.3,1.6,1.4,2.7c0,2.7-0.5,5.4-0.5,7.9c-0.9,2.9-2.2,5.6-3.9,7.9c-1.6,1.3-4.5,2.3-3.4,4.7
			c2.3,0.5,4.8,0,7.2,0c1.8,0.2,2.5-1.6,3-2.9c0.9-7.2,1.3-14.3,2-21.5c-0.5-0.7-1.6-0.7-2.5-1.3C188.2,100.3,186.4,99.2,184.2,98.8
			z M193.5,103L193.5,103c-0.2,3.9-0.7,7.7-0.9,11.7c0,3-0.7,6.1-0.5,9.1c2-0.5,3.9-1.3,6.1-1.4c0.5,0,1.3-0.2,1.8-0.4
			c0-2.2,0.4-4.3,0.5-6.3c0.5-2.2,0.9-4.5,0-6.5c-0.5-2-2.5-2.7-3.4-4.3C196.6,103.5,194.8,103.3,193.5,103z M189.1,137.9
			L189.1,137.9c0.2,0.7,0.4,1.4,0.4,2.2c0.4,0,0.7,0.2,0.9,0.2c0-0.7,0-1.6,0-2.3C190.1,137.9,189.4,137.9,189.1,137.9z M6.3,184.2
			L6.3,184.2c-0.2,2,1.1,3.4,0.4,5.4c1.8,0,3.2-1.3,4.8-2c1.6,0.7,0.4,2.5-0.4,3.2c1.1,0,2.3,0.4,3.2-0.5c1.3-1.1,2.5-2.3,3.6-3.6
			c1.1-0.4,0.9,0.9,1.3,1.6c2.5,0,5.6-1.6,5.9-4.3c-1.4,0.5-2.3,1.6-3.2,2.7c0-0.7,0-1.4,0.2-2c-3-1.4-6.5,0.4-9.7-0.2
			C10.6,183.5,8.3,183.5,6.3,184.2z M30,184.6L30,184.6c0,0.5,0,0.9,0,1.3c0.4,0,0.9,0,1.3,0.2c0-0.5,0.2-0.9,0.2-1.4
			C30.9,184.6,30.3,184.6,30,184.6z M6.8,194.6L6.8,194.6c0,1.8,0,3.4,0.2,5.2c0.9-0.4,1.8-0.7,2.9-1.1c0,0.7,0.2,1.6,1.1,2
			c1.3,1.1,2.3-0.5,3.2-1.3c0.5,0.2,1.1,0.4,1.6,0.7c0.7-0.5,1.3-0.7,2-1.1c0.2,0.7,0.5,1.4,0.7,2.2c0.9-1.3,1.8-2.3,3-2.9
			c0-0.2,0-0.7,0-0.9c-2.2-0.7-4.3-2-6.5-2.5c-1.4-0.4-2.9,0-4.1-0.2c-0.9-0.5-1.3-1.6-1.8-2.2c-0.7-0.5-1.4-1.1-2.2-1.4
			C6.1,192.1,6.6,193.5,6.8,194.6z M76.6,194.4L76.6,194.4c0,0.4,0,0.7,0,1.3c2.3,0.4,5.4,1.3,7.4-0.7c0.7-0.7-0.2-1.6-0.9-1.4
			C80.9,193.5,78.6,193.4,76.6,194.4z M7.7,203.6L7.7,203.6c-0.5,2.7,1.1,5,1.1,7.7c1.3,0,2.2-1.1,3.4-1.1c0,0.7,0,1.4-0.2,2.2
			c1.1-0.2,2.2-0.2,3.2-0.4c0.5-1.1,1.1-2.3,1.8-3.4c0.2,0,0.7,0,0.9,0c0.7,1.6-0.4,3-0.5,4.7c1.3-0.5,2-1.8,2.2-3
			c0.2-0.7,0-1.8,0.9-2.2c0.5,0.4,1.1,0.9,1.8,1.4c0.4-0.7,0.9-1.4,0.7-2.3c-0.4-0.9-0.9-1.6-1.3-2.5c-2,0-3.8,0.2-5.7,0
			C13.3,204.1,10.4,203.9,7.7,203.6z M27.1,203.9L27.1,203.9c0,0.4,0,0.9,0,1.3c0.2,0.2,0.5,0.4,0.9,0.5c0.2-0.4,0.4-0.9,0.5-1.3
			C28,204.3,27.6,204.1,27.1,203.9z M46.1,215.1L46.1,215.1c0.2,0.5,0.2,1.3,0.4,1.8c-2,0.4-3.9,0.9-5.9,0c0,0.7-0.2,1.3-0.2,1.8
			c-0.7,0-1.4,0.2-2.2,0.2c0,0.9,0.2,1.6,1.1,2c0.7,0.9,1.4,2,2.7,2.7c0-0.5,0-0.9-0.2-1.4c-0.4-0.5-0.9-0.9-1.3-1.4
			c0-0.2,0.2-0.7,0.4-1.1c0.7,0.5,1.4,1.3,2.3,1.4c0.7,0.2,1.6,0.2,2.5,0.2c0.2,0.2,0.7,0.4,0.9,0.4c0.9,1.4,1.6,3,3,4.1l0.2,0.4
			c0.2,0.4,0.4,0.5,0.5,0.9c0.2,0,0.5,0,0.9,0c0-0.7,0-1.4,0-2.2c0.9,0.2,2,0.4,2.9,0.4h-0.4c1.1-0.7,2-1.8,3.2-2
			c0.9,1.8-2.9,2.9-1.1,4.3c0.5-0.9,1.3-1.8,2.2-2.2c1.1-0.7,1.6-2,2.7-2.5c1.6-0.2,0.4,1.8,0.2,2.7c1.8-0.5,2.7-2.3,3-3.9
			c0.7,0,1.4,0,2.2,0c0.4-0.9,0.7-2,0.5-2.9c-0.4-1.4-2.2-2.2-3.2-1.4c-0.9,0.5-1.8,0.9-2.7,0.7c-1.3-0.4-2.3,1.1-3.6,0.9
			c-0.9,0.2-1.3-0.9-1.6-1.3c-1.3,0-2.5,0.2-3.8-0.2c-0.7-0.9-0.4-2.2-1.3-2.9c-0.4,0.5-0.7,1.1-1.1,1.6c-0.2,0-0.7,0-1.1,0
			C47.9,215.4,47,215.2,46.1,215.1z M9.9,215.8L9.9,215.8c-0.2,1.8,0.5,3.6,0.7,5.2c0.2,0.9,0.2,1.8,0.4,2.7c0.5,0,1.3,0.2,1.8,0.2
			c-0.2-0.7-0.5-1.4-0.7-2.2c1.6-0.5,3.6-0.7,4.8-2c0.2,0.2,0.7,0.4,1.1,0.5c-0.7,0.9-1.3,1.8-1.8,2.7c1.8-0.5,3.4-2.2,3.8-4.1
			l-0.4,0.2c-0.7,0-1.3-0.2-1.8-0.4c0-0.4-0.2-1.1-0.4-1.3c-1.1,0-2.2,0.2-3.2,0.4c-0.9-0.5-2.2,0-2.9-0.5c0-0.5,0-1.3,0-1.6
			C10.9,215.6,10.2,215.8,9.9,215.8z M86.8,221.9L86.8,221.9c-0.4,0.7,0,1.1,0.7,0.7C87.7,221.9,87.5,221.7,86.8,221.9z
			 M141.5,221.9L141.5,221.9c0,0.5,0,1.1,0,1.6c0.5,0.2,1.3,0.4,2,0.4c-0.2-0.7-0.2-1.3-0.4-2C142.6,221.9,142.1,221.9,141.5,221.9z
			 M44.8,223.8L44.8,223.8c-0.7,0-1.4,0-2.3,0c0.2,0.9,0.7,1.4,1.4,1.4c0.9,0.2,1.6,0.4,2.3,0.7c0-1.3,0.2-2.3,0-3.4
			C45.7,223,45.4,223.5,44.8,223.8z M128.6,224L128.6,224c0,0.5,0,1.1,0,1.4c1.1,0,2.2-0.4,2.9-1.1
			C130.6,223.7,129.5,223.8,128.6,224z M59.4,226.7L59.4,226.7c-0.2,0.7-0.4,1.6-0.5,2.3c-1.4,0.5-2.9,0.4-4.3,0.4
			c-0.4,0.5-0.5,1.1-1.1,1.4c-0.7,0.2-1.6,0-2.3,0c-0.2,0.4-0.5,0.9-0.7,1.1c-2.2-0.9-4.5-0.7-6.6,0.2c-1.3,2.5,1.4,4.3,3.2,5.6
			c-0.7-1.4-1.4-3-1.1-4.7c0.4,0,0.7,0,1.3,0c0.4,1.3,0.4,2.7,1.4,3.6c1.1,0.7,2.2,1.6,3.2,2.5c-0.4-1.1-1.1-2.2-1.4-3.2
			c-0.2-0.7,0.4-1.4,0.5-2c1.1,0,2,0.7,2.9,1.3c0.2-0.5,0.5-1.1,0.9-1.6c1.4,0,3,0.4,4.3-0.4c0.9-0.4,1.8-0.2,2.7,0
			c-0.4,0.9-0.5,1.8-0.7,2.5c2.2,0,3.6-2,5.6-2.9c0.9-0.4,2.2-0.5,2.3-1.8c0.2-1.3,0.7-2.9-0.5-3.6C65.3,226.7,62.2,228,59.4,226.7z
			 M13.8,232.3L13.8,232.3c0.4,1.1,0.5,2,0.9,3c2,0.4,2.5-2.7,1.4-3.8C15.2,231.7,14.5,231.9,13.8,232.3z M54.7,236L54.7,236
			c0,0.4,0,0.9,0,1.3c0.2-0.2,0.7-0.2,0.9-0.2c1.6,0.9,3.4,1.6,5,2.5c0,0.2,0,0.7,0,1.1c-1.6,0-3.2,0-4.8-0.2
			c-0.5,0.5-1.1,1.3-1.8,1.4c-0.5,0.2-2,0.2-1.4,1.1c1.3,0.5,2.7,1.4,3.9,0.7c1.3-0.2,2.3-0.9,3.4-0.4c2,0.9,3.8-0.2,5.7,0
			c1.6,0,3-0.4,4.5-0.7c-1.3-2.5-3.2-5-6.1-5.4c-1.8,0.4-4.5,1.6-5.6-0.7C57.4,235.9,56,236.2,54.7,236z M47.4,243L47.4,243
			c0,0.4-0.2,1.1-0.2,1.4c1.4,0.4,3,0.9,4.5,1.1c0-0.7,0-1.4,0-2.3C50.2,243.4,48.8,243.4,47.4,243z M42.7,245L42.7,245
			c1.1,1.3,2.3,2,3.6,2.9c0.7-1.1,1.1-2.9-0.2-3.6C44.8,243.9,43.6,244.1,42.7,245z M60.6,248.8L60.6,248.8
			c-1.4,0.7-2.3,2.3-3.9,2.7c0,0.2,0,0.5-0.2,0.7c1.6,0.2,2.9-0.7,3.4-2c0.4,0,0.9,0.2,1.3,0.4c-0.5,1.3-1.3,2.5-2.5,3
			c-0.9,0.7-2.5,0.9-2.7,2.2c0.9,0,1.8,0,2.7,0c1.3-1.8,3.2-3.8,5.6-3c0.5-0.7,0.9-1.6,0.9-2.5c-0.7-0.5-1.4-1.3-2.2-1.6
			C62.1,248.4,61.3,248.6,60.6,248.8z M67.8,249.9L67.8,249.9c-0.2,0.4-0.4,0.9-0.4,1.3c0,1.3,1.4,1.4,2.5,1.6
			c0-0.9,0.7-1.8,0.2-2.7C69.4,249.9,68.5,250,67.8,249.9z M61.2,256.1L61.2,256.1c-0.2,0-0.5-0.2-0.7-0.2c0,0.4,0.2,1.1,0.2,1.3
			c0.7-0.2,1.4-0.4,2-0.5c0.7-0.5,1.4-0.9,2-1.3c0.7-1.3-1.1-1.4-2-1.6C62.1,254.5,61.7,255.4,61.2,256.1z M45.9,256L45.9,256
			c0,0.5,0,1.1,0,1.6c1.4,0.7,3,1.3,4.7,1.4c-0.2-0.5-0.4-0.9-0.9-1.1C48.4,257.2,47.2,256.5,45.9,256z M28,256.5L28,256.5
			c-0.2,0.7-0.2,1.4-0.2,2.2c0.9,0,1.6,0,2.3,0c0.2-0.7,0-1.4,0-2.2C29.4,256.5,28.7,256.5,28,256.5z M75.7,258.6L75.7,258.6
			c0.7,0.2,1.4,0.4,2,0.5C78,257.7,76.4,257.6,75.7,258.6z M52.4,259L52.4,259c1.3,1.4,3.2,1.3,4.8,1.3c-0.2-0.7,0-1.6-0.9-1.6
			C55.1,258.3,53.6,258.5,52.4,259z M59.9,261.2L59.9,261.2c0.4,1.6,2,2.2,3.4,2.2c0-0.7,0-1.4,0-2.2
			C62.2,260.4,61,260.8,59.9,261.2z M84.3,262.2L84.3,262.2c0,0.7,0,1.3,0.2,1.8c1.3,0.5,2.5,0.2,3.8-0.2c1.3,0,2.5-0.2,3.8-0.5
			c0.5,0.7,0.5,1.4,0.7,2.3c2,0,3.8-0.7,5.7-1.3c1.4-0.5,2.2-2.3,3.9-2c0.4,1.4-1.3,2.2-1.6,3.6c0.9,0,1.8,0,2.9,0
			c0.5-2,3.2-2.2,3.2-4.1h-0.4c-0.5-0.5-1.3-0.7-2-0.7c-2.9-0.2-5.7-0.7-8.6-0.2C92,261.5,88.2,262.6,84.3,262.2z M70.1,263.7
			L70.1,263.7c-2-0.2-4.1,1.1-5.9-0.2c-0.9,2-1.8,3.8-2.5,5.7c2.7-0.4,4.1-3.6,7-3.4c-0.2,1.6-1.6,2.5-2.3,3.8
			c2-0.2,3.2-2.2,4.3-3.8c0.5-1.1,2.5-0.9,2-2.3C72.3,262.2,70.8,263.7,70.1,263.7z M109.1,264.7L109.1,264.7
			c-0.9,0.7-1.8,1.4-2,2.5c0.5,0.2,1.3,0.4,1.8,0.5c-0.9,1.1-2.2,1.6-3.4,2.2c0,0.9,0,1.6,0,2.5c-2,0.5-4.1-0.4-6.3,0.5
			c-1.3,0.4-2.7-0.4-3.9,0.2c-0.9,0.4-1.8,0.4-2.5,0.4c-0.2,0.2-0.4,0.5-0.4,0.7c2.3-0.2,4.1,1.4,5.9,2.5c-0.9,0.9-2,1.6-3,2.2
			c0,0.4,0,0.7,0.2,1.1c2.7,0.7,5.7,0.2,8.6,0c-0.4,0.5-0.9,0.9-1.3,1.4c-1.3,0-2.5,0.4-3.8,0.9c2.5,1.4,5.6-0.4,8.3-0.9
			c0,0.7,0,1.3-0.2,2c1.3-0.7,2.5-1.3,3.6-2.2c0.7-0.4,1.6-0.9,2.3-1.3c0-0.5,0.2-1.1,0.2-1.6c-2.3,0.4-4.7-0.2-7-0.5
			c-2.2,1.1-4.5,0.4-6.6,0c0-0.2,0-0.5,0-0.9c1.1-0.4,2.2-0.7,3.2-1.4c0.7-0.5,1.3-1.4,2.3-1.4c0.2,0.7,0.4,1.3,0.5,1.8
			c1.4-0.5,2.3-1.8,3.4-2.9c0.7,0,1.4,0.4,2.3,0.2c0.7-0.7,1.3-1.8,2-2.5c0.9-1.3,2.3-2.3,3-3.8c0.4-0.5,0-1.8-0.9-1.6
			c-1.4,0.4-2.9,1.1-4.1,0.5C110.7,265.5,110,264.2,109.1,264.7z M43.8,266L43.8,266c-0.2,0.5-0.2,1.1-0.2,1.4
			c0.7-0.2,1.1-0.7,1.8-1.1c0.9-0.4,1.4,0.5,2.3,0.9c1.1,0.2,2.3,0,3.2-0.7c0-0.2-0.2-0.7-0.2-1.1c-0.9,0-1.8,0-2.5,0.4
			C46.6,266.5,45.2,264.9,43.8,266z M52.4,265.6L52.4,265.6c0.5,0.4,1.1,0.7,1.4,1.1c0,0.4,0.2,0.9,0.2,1.3c0.7-0.4,1.4-0.7,2.2-0.9
			c0.4-0.5,0.5-1.1,0.7-1.6C55.4,265.3,53.8,265.1,52.4,265.6z M56.9,269.2L56.9,269.2c1.3-0.2,2.2-1.1,2.9-2c0.7-0.7,2-1.1,2.9-1.6
			c-0.2,0-0.7-0.5-0.9-0.7C59.5,265.3,58.1,267.4,56.9,269.2z M155,265.5L155,265.5c0.2,0.5,0,1.4,0.7,1.8c0.9,0.5,2.2,0.5,3.4,0.5
			c1.4,0,3.2,0,3.9-1.6C160.4,265.6,157.7,265.6,155,265.5z M89.5,268L89.5,268c0.4,0,1.1,0,1.4,0c0-0.4,0-1.3,0-1.6
			C90.2,266.5,89.7,267.1,89.5,268z M54.7,270.3L54.7,270.3c-0.7,0.7,0.4,1.6,0.9,1.1C56.3,270.7,55.2,269.8,54.7,270.3z
			 M51.1,278.6L51.1,278.6c1.4-0.5,3.6-1.1,3.8-2.9C53.3,276.2,51.5,276.8,51.1,278.6z M48.8,276.2L48.8,276.2
			c-0.2,0.5-0.2,1.1-0.4,1.6c0.9,0,1.6-0.5,1.8-1.4C49.9,276.4,49.1,276.2,48.8,276.2z M54.2,280.3L54.2,280.3
			c1.3-1.4,3-2.5,3.9-4.1c-0.2,0-0.9,0-1.3,0.2C55.8,277.3,54.3,278.6,54.2,280.3z M58.7,276.9L58.7,276.9c0,0.4,0,0.9,0,1.3
			c0.7-0.2,1.3-0.5,1.4-1.3C59.7,276.9,59,276.9,58.7,276.9z M69.4,277.8L69.4,277.8c0,0.2,0.2,0.5,0.2,0.7
			c-0.2,0.7-0.5,1.4-0.7,2.2c0.4,0,0.9,0,1.3,0v-0.2c0.9-1.1,1.4-2.3,2.2-3.6C71.2,277.1,70.3,277.5,69.4,277.8z M60.6,279.1
			L60.6,279.1c0.9,0.9,1.8-0.4,2.9-0.4c0.5,1.3,1.3,2.7,2.9,2.9c0.4-0.9,1.4-1.6,1.3-2.5c-1.6-0.7-2.9-2-4.7-2.2
			C62.1,277.7,61.3,278.4,60.6,279.1z M174,278L174,278c-0.7,0.9-1.3,2-2.3,2.5c-1.8,0.7-3.8,1.1-5.6,1.8c1.6,0.4,3.2,0.5,5,0.5
			c0.9-0.7,1.6-1.8,2.9-2c1.4-0.2,2.3-1.4,2.2-2.9C175.4,278,174.7,278,174,278z M92.4,279.5L92.4,279.5c0,0.2,0.4,0.9,0.5,1.1
			c0.2,0,0.9-0.2,1.3-0.2C95.1,278.9,93.1,279.1,92.4,279.5z M173.3,284.7L173.3,284.7c0,0.4,0.4,0.9,0.4,1.1c0.4,0,1.1,0,1.4,0
			C175.4,284.5,174,284.5,173.3,284.7z M102.8,286.4L102.8,286.4c-0.5,1.1-0.7,2.3-0.4,3.6c0.4,0,1.3-0.2,1.6-0.2
			c0-0.5,0.2-1.1,0.2-1.6c1.3-0.4,2.9-0.9,4.1,0c0.9-0.7,2.5-0.9,2.7-2.3C108.3,285.7,105.5,286.1,102.8,286.4z M171.1,286.1
			L171.1,286.1c-0.2,0.7-0.4,1.4-0.5,2.2c1.3,0.4,2.7,0.7,4.1,0.7c-0.2-0.5,0-1.6-0.7-1.1c-0.4-0.2-0.9-0.5-1.3-0.7
			C172.7,286.1,171.8,286.3,171.1,286.1z M64,288.1L64,288.1c-0.5,0.5-0.9,0.9-1.3,1.4c-0.2,0.5,0.2,1.1,0.5,1.4
			c0.9-0.7,2-1.3,2.9-2c0.4-0.4,0.5-0.9,0.9-1.4C66,287.5,64.9,287.7,64,288.1z M70.1,289.5L70.1,289.5c-0.9,0-1.8,0-2.7,0.2
			c-0.2,1.8-1.4,3-2.5,4.3c2,0,3-2.2,4.3-3.6c0.9-0.2,1.8,0.2,2.5-0.5c0.5-0.4,0.4-1.3,0.5-1.8C71.6,288.4,70.8,289,70.1,289.5z
			 M165.7,288.8L165.7,288.8c-0.7,0.5-0.9,1.1-1.3,1.8c0.2,0.2,0.5,0.7,0.7,1.1c0.9,0.2,2,0.4,2.9,0.5c0.2,0.2,0.2,0.7,0.2,0.9
			c-2.5,0.4-5-0.5-7.5-0.5c0.4,2.3,3.9,1.3,4.5,3.4c-1.3,0.2-2.5,0.2-3.6,0.4c1.8,1.4,4.7,0.7,5.9,2.9c1.8-0.5,4.5-0.2,5.2-2.3
			c-1.3,0.2-2.5,0.7-3.9,1.1c-0.2-0.2-0.7-0.4-1.1-0.5c-0.4-0.9-0.4-1.8-0.2-2.7c2.2,0.7,3.8-0.9,5-2.3c-0.9-1.6-2.9-2.3-3.2-4.3
			C168.1,288.2,166.8,288.4,165.7,288.8z M94.5,288.8L94.5,288.8c1.4,1.4,3.2,2.2,5.2,2.7c-0.2-1.4-1.3-2.3-2-3.4
			C96.7,288.2,95.4,287.9,94.5,288.8z M115.9,289.7L115.9,289.7c0.7,0.7,1.3,1.8,1.8,2.7c0.9-1.3,2-2.3,2.7-3.8
			C118.7,288.2,117.3,289,115.9,289.7z M52.4,290.9L52.4,290.9c1.4,0,2.7-0.2,3.8-1.1c-0.2-0.4-0.9-0.7-1.1-0.9
			C54.2,289.7,53.3,290.4,52.4,290.9z M55.6,292.5L55.6,292.5c2.2,0.4,4.3-1.3,4.8-3.2C58.5,289.7,57.2,291.6,55.6,292.5z
			 M185.1,290L185.1,290c0,0.5-0.2,1.1-0.2,1.6c0.5,0,0.9,0,1.4,0c0-0.5,0-1.1,0-1.8C186,290,185.5,290,185.1,290z M110.1,291.6
			L110.1,291.6c0.5,0,1.3,0.2,1.8,0.2c0.5,0.4,0.9,0.9,1.4,1.3c1.4-0.5,2-2,2.5-3.2C113.9,290,111.4,289.5,110.1,291.6z M48.1,291.6
			L48.1,291.6c0,0.4,0.2,0.7,0.4,1.3c0.5,0.2,1.3,0,1.8,0c0-0.7,0.2-1.4,0-2.2C49.5,290.9,48.8,291.3,48.1,291.6z M111,297L111,297
			c1.8,0,3.9-0.5,5-2.2C114.1,294.3,112.1,295.6,111,297z M60.6,299.4L60.6,299.4c-0.5,1.1-1.8,1.4-2.9,2.2c1.4-0.7,2.9-1.3,4.5-1.6
			c0.4-0.4,0.2-1.1,0.2-1.6C61.7,298.5,61,298.6,60.6,299.4z M99,299.4L99,299.4c0.2,0.2,0.7,0.5,0.9,0.7c0.7-0.2,1.4-0.4,2.2-0.7
			c0-0.2-0.2-0.7-0.2-1.1C100.8,297.9,99.4,298.1,99,299.4z M161.6,299.7L161.6,299.7c0,1.3,1.3,1.8,2.3,2c0.2-0.4,0.2-1.1,0.2-1.4
			C163.2,300.1,162.5,299.9,161.6,299.7z M111.2,303.3L111.2,303.3c-0.4,1.1-1.4,2.3-0.7,3.6c1.8-0.2,2.2-2.3,3.2-3.6
			C112.8,303.1,111.9,302.4,111.2,303.3z M72.8,307.6L72.8,307.6c-0.7,0.7,0.2,2.7,1.3,1.6c0.9-0.4,0.9-1.3,0.9-2.2
			C74.3,307.3,73.4,306.9,72.8,307.6z M140.8,310.1L140.8,310.1c0.7,0.9,1.8,1.3,3,1.1c-0.4-0.5-0.5-1.3-1.1-1.6
			C142.1,309.4,141.3,309.8,140.8,310.1z M129.3,322.1L129.3,322.1c0.2,0.4,0.5,0.7,0.7,1.1c0.4-0.4,0.7-0.7,1.1-1.1
			C130.4,322,129.9,321.6,129.3,322.1z M143.1,325.9L143.1,325.9c0,0.2,0,0.7,0,1.1c0.4,0,0.9,0,1.1,0c0-0.4,0-0.9,0-1.1
			C143.9,325.9,143.5,325.9,143.1,325.9z M182.6,329.3L182.6,329.3c-0.2,0.5-0.4,1.1-0.4,1.6c0.4,0,0.9-0.2,1.4-0.2
			c0-0.4,0-0.7,0-1.3C183.3,329.5,182.8,329.5,182.6,329.3z M178.3,338.1L178.3,338.1c-0.2,0.4-0.4,0.9-0.5,1.3c0.5,0,1.1,0,1.8,0
			C179.4,338.8,178.8,338.3,178.3,338.1z M139.9,345.8L139.9,345.8c-0.5,0.7,0.4,1.8,1.1,1.1C141.5,346.2,140.6,345.3,139.9,345.8z"
			/>
		<path class="st3" d="M43.4,174.7c1.6,0.4,3.2,0.9,4.8,1.1c0,0.2,0,0.7,0,0.9h-0.4C46.1,177.2,43.8,176.7,43.4,174.7z"/>
		<path class="st4" d="M54.5,207.3c1.4-0.2,2.9-1.4,4.3-0.9c0.2,1.4-1.4,2-2.5,2.2C55.4,209,55.1,208.1,54.5,207.3z"/>
		<path class="st5" d="M52.4,211.7c1.6-1.1,3.6-0.7,5.4-0.7c-0.2,0.4-0.2,0.9-0.4,1.1C55.8,212,53.8,212.7,52.4,211.7z"/>
		<path class="st6" d="M48.1,220.1c0.5-0.4,1.3-0.7,1.8-1.1c0.4,1.1,0.7,2.3,0.9,3.6c0,0.4,0,1.1-0.2,1.4c-0.5-0.4-1.3-0.7-1.8-1.4
			C48.4,221.9,48.2,221,48.1,220.1z"/>
	</g>
</g>
</svg>
